<?xml version="1.0" encoding="UTF-8" standalone="no"?>
<svg width="92px" height="117px" viewBox="0 0 92 117" version="1.1" xmlns="http://www.w3.org/2000/svg" xmlns:xlink="http://www.w3.org/1999/xlink" xmlns:sketch="http://www.bohemiancoding.com/sketch/ns">
    <!-- Generator: Sketch 3.5 (25232) - http://www.bohemiancoding.com/sketch -->
    <title>Group</title>
    <desc>Created with Sketch.</desc>
    <defs></defs>
    <g id="Page-1" stroke="none" stroke-width="1" fill="none" fill-rule="evenodd" sketch:type="MSPage">
        <g id="Step-1:-Confirm" sketch:type="MSArtboardGroup" transform="translate(-787.000000, -201.000000)" fill="#DDDDDD">
            <g id="tap-button" sketch:type="MSLayerGroup" transform="translate(833.000000, 259.500000) scale(1, -1) translate(-833.000000, -259.500000) translate(787.000000, 201.000000)">
                <g id="Capa_1" transform="translate(0.000000, -0.000000)" sketch:type="MSShapeGroup">
                    <g id="Group">
                        <path d="M23.8990175,38.9369915 C25.137386,38.4334004 25.7333684,37.0222162 25.229386,35.7848092 C24.1350702,33.0967049 23.5802456,30.2489352 23.5802456,27.3193167 C23.5802456,14.9234746 33.6732105,4.83834586 46.0790877,4.83834586 C58.4849649,4.83834586 68.5779298,14.9234746 68.5779298,27.3193167 C68.5779298,30.2493383 68.0231053,33.0979145 66.928386,35.7856156 C66.4244035,37.0230226 67.0199825,38.43461 68.2583509,38.9382011 C68.5573509,39.0599662 68.8664386,39.1172199 69.1702807,39.1172199 C70.1257895,39.1172199 71.0312632,38.5479079 71.4137895,37.6092688 C72.7453684,34.3393534 73.4204386,30.8775169 73.4204386,27.3193167 C73.4200351,12.2555301 61.1545789,0 46.0790877,0 C31.0035965,0 18.7381404,12.2555301 18.7381404,27.3193167 C18.7381404,30.8767105 19.4132105,34.3381438 20.744386,37.6080592 C21.2483684,38.8454662 22.6610526,39.4417923 23.8990175,38.9369915 L23.8990175,38.9369915 Z" id="Shape"></path>
                        <path d="M79.6401228,17.3406316 C79.6421404,18.6756118 80.7251579,19.7674652 82.0611754,19.7674652 L82.0644035,19.7674652 L89.4712105,19.7533534 C90.8084386,19.7513374 91.8906491,18.6667415 91.8886316,17.3297453 C91.886614,15.9951682 90.8035965,14.9291194 89.4675789,14.9291194 L89.4643509,14.9291194 L82.0575439,14.9287162 C80.7203158,14.9303289 79.6381053,16.0040385 79.6401228,17.3406316 L79.6401228,17.3406316 Z" id="Shape"></path>
                        <path d="M79.189807,10.4314737 C79.6578772,10.4314737 80.131193,10.2955968 80.547614,10.0129568 L86.6744912,5.8543985 C87.7805088,5.10405169 88.0682105,3.59892293 87.3168772,2.49416729 C86.5663509,1.38900846 85.0604561,1.10193327 83.9540351,1.85228008 L77.8271579,6.01083835 C76.7211404,6.76118515 76.4334386,8.26631391 77.1847719,9.37106955 C77.6532456,10.0601306 78.4150702,10.4314737 79.189807,10.4314737 L79.189807,10.4314737 Z" id="Shape"></path>
                        <path d="M80.5665789,24.6429051 C79.4589474,23.8941711 77.9534561,24.1860846 77.2053509,25.2932594 C76.4568421,26.4004342 76.7481754,27.9043534 77.8562105,28.6518778 L83.9935789,32.7943083 C84.4087895,33.0749323 84.8800877,33.2091964 85.3465439,33.2091964 C86.1241053,33.2091964 86.8871404,32.8358374 87.354807,32.1435508 C88.1037193,31.0363759 87.8119825,29.5324568 86.7039474,28.7849323 L80.5665789,24.6429051 L80.5665789,24.6429051 Z" id="Shape"></path>
                        <path d="M9.96303509,19.767062 C11.2986491,19.767062 12.3820702,18.6824662 12.3840877,17.3474859 C12.3861053,16.0112961 11.3034912,14.926297 9.96666667,14.9238778 L2.55945614,14.9287162 L2.55622807,14.9287162 C1.22061404,14.9287162 0.137192982,15.9975874 0.135175439,17.3325677 C0.133157895,18.6687575 1.21577193,19.7448863 2.55259649,19.7469023 L9.95980702,19.767062 C9.96061404,19.767062 9.96182456,19.767062 9.96303509,19.767062 L9.96303509,19.767062 Z" id="Shape"></path>
                        <path d="M5.34891228,5.8543985 L11.4757895,10.0129568 C11.8922105,10.296 12.3655263,10.4314737 12.8335965,10.4314737 C13.6087368,10.4314737 14.3705614,10.0601306 14.8386316,9.37106955 C15.5899649,8.26631391 15.3022632,6.76118515 14.1962456,6.01083835 L8.06977193,1.85228008 C6.96415789,1.10072368 5.45785965,1.38900846 4.70692982,2.49416729 C3.95519298,3.59892293 4.24289474,5.1036485 5.34891228,5.8543985 L5.34891228,5.8543985 Z" id="Shape"></path>
                        <path d="M11.4572281,24.6429051 L5.32026316,28.7857387 C4.21222807,29.5332632 3.92049123,31.0375855 4.66940351,32.1443571 C5.13707018,32.8366438 5.90050877,33.2100028 6.67807018,33.2100028 C7.14412281,33.2100028 7.61542105,33.0753355 8.03103509,32.7951147 L14.168,28.6526842 C15.2760351,27.9051598 15.5677719,26.4008374 14.8188596,25.2940658 C14.0703509,24.1860846 12.5648596,23.8949774 11.4572281,24.6429051 L11.4572281,24.6429051 Z" id="Shape"></path>
                        <path d="M86.893193,69.7254023 C85.2900526,60.1539445 78.6180351,58.9395197 75.3358947,58.9395197 C75.2281579,58.9395197 75.1244561,58.9411325 75.024386,58.9435517 C75.001386,58.9439549 74.979193,58.9443581 74.956193,58.9443581 C74.060807,58.9443581 73.1597719,58.5266476 72.7372982,57.7384004 C70.5414035,53.6399182 66.9663158,52.9153759 64.2954912,52.9153759 C64.1526491,52.9153759 64.0134386,52.8294953 63.8766491,52.8294953 L63.8427544,52.8294953 C62.7177719,52.8294953 61.6815614,52.1021306 61.6815614,50.9719737 L61.6815614,24.5646852 C61.6815614,21.0657547 59.1447018,17.7760827 55.1168772,17.7760827 C51.4009649,17.7760827 48.3657719,20.5988543 48.3657719,24.271562 L48.3657719,50.7453778 C48.3657719,52.049312 47.381614,53.2322876 46.0762632,53.2322876 L46.0371228,53.2322876 C44.756386,53.2322876 43.7133158,52.1452726 43.7141228,50.8602885 L43.7201754,29.3062641 C43.722193,25.0654539 40.4380351,22.9321466 37.1542807,22.9321466 C33.8725439,22.9321466 30.5912105,25.0436814 30.589193,29.281266 C30.589193,29.281266 30.5726491,70.1979474 30.5742632,71.8691927 C30.5750702,73.359 29.3677719,74.2774793 28.1423158,74.2774793 C27.3925965,74.2774793 26.635614,73.9327472 26.1437368,73.1646598 L20.1818947,63.8540695 C18.8333684,61.6284305 16.8735263,60.705516 14.9310351,60.705516 C10.5699123,60.7051128 6.29917544,65.3563759 9.24236842,70.3511617 C9.27626316,70.4088186 9.30854386,70.4684915 9.33719298,70.5285677 L33.5097895,114.646218 C33.9516316,115.578809 34.891,116.143283 35.9227719,116.143686 L69.2828596,116.130784 L69.2844737,116.130784 C70.5603684,116.130784 71.6579123,115.259075 71.9052632,114.008363 L75.2382456,104.059514 C75.3052281,103.721636 75.4395965,103.405128 75.6292456,103.117246 C84.9656316,88.9388769 88.4491228,79.0150263 86.893193,69.7254023 L86.893193,69.7254023 Z" id="Shape"></path>
                    </g>
                </g>
            </g>
        </g>
    </g>
</svg>