<?xml version="1.0" encoding="UTF-8" standalone="no"?>
<svg width="40px" height="39px" viewBox="0 0 40 39" version="1.1" xmlns="http://www.w3.org/2000/svg" xmlns:xlink="http://www.w3.org/1999/xlink">
    <!-- Generator: Sketch 3.6 (26304) - http://www.bohemiancoding.com/sketch -->
    <title>Page 1</title>
    <desc>Created with Sketch.</desc>
    <defs></defs>
    <g id="Page-1" stroke="none" stroke-width="1" fill="none" fill-rule="evenodd">
        <g id="Praktijk" transform="translate(-1680.000000, -807.000000)" fill="#FFFFFF">
            <g id="Beoordelingen-Copy" transform="translate(221.000000, 157.000000)">
                <g id="Group-9-Copy-11" transform="translate(1279.062500, 611.000000)">
                    <path d="M208.450707,65.0476402 L220,74.0617238 L216.995305,77.0664183 L209.389662,71.0570292 L195.680751,71.0570292 C194.241001,71.0570292 192.973394,70.6031954 191.877934,69.6955276 C190.782472,68.7878583 190.078247,67.6141493 189.765257,66.1744006 L187.042252,54.3434119 C186.85446,53.0914558 187.120501,51.9647034 187.840375,50.9631385 C188.56025,49.9615737 189.514866,49.3355876 190.704225,49.0851964 L190.798121,49.0851964 C192.175274,48.897415 193.333333,49.1791032 194.272299,49.9302768 L197.558682,52.4654858 C200.563376,54.7816005 203.693274,55.6266648 206.94836,55.0006948 L206.94836,59.3199392 C203.943666,59.8207216 200.500782,59.0069542 196.619711,56.8786209 L198.68545,65.0476402 L208.450707,65.0476402 Z M207.981222,73.0288604 L207.981222,77.0664183 L193.896712,77.0664183 C191.3928,77.0664183 189.201878,76.2682963 187.323944,74.6720517 C185.44601,73.075809 184.319249,71.0570292 183.943662,68.6157141 L180,48.9913057 L183.943662,48.9913057 L187.887323,67.9584376 C188.137714,69.3981879 188.826291,70.6031954 189.953051,71.5734617 C191.079812,72.5437264 192.394365,73.0288604 193.896712,73.0288604 L207.981222,73.0288604 Z M186.666667,46.2682993 C185.790296,45.6423133 185.258215,44.7816085 185.070423,43.6861369 C184.882629,42.5906814 185.101721,41.604757 185.727699,40.7283958 C186.353677,39.8520185 187.214397,39.3042988 188.309859,39.0852044 C189.40532,38.8661101 190.391235,39.069548 191.267605,39.695534 C192.143974,40.3841139 192.691705,41.2761316 192.910797,42.3715871 C193.12989,43.4670426 192.926447,44.452967 192.300468,45.3293283 C191.674491,46.2057055 190.798121,46.7377848 189.671362,46.9255823 C188.5446,47.1133636 187.543035,46.8942854 186.666667,46.2682993 L186.666667,46.2682993 Z" id="Page-1"></path>
                </g>
            </g>
        </g>
    </g>
</svg>