<?xml version="1.0" encoding="utf-8"?>
<!DOCTYPE svg PUBLIC "-//W3C//DTD SVG 1.1//EN" "http://www.w3.org/Graphics/SVG/1.1/DTD/svg11.dtd">
<svg version="1.1" id="Layer_1" xmlns="http://www.w3.org/2000/svg" xmlns:xlink="http://www.w3.org/1999/xlink" x="0px" y="0px"
	 width="192.709px" height="58px" viewBox="6.645 2 192.709 58" enable-background="new 6.645 2 192.709 58" xml:space="preserve">
<g>
	<path fill="#402C71" d="M78.101,6.384v3.397l-8.682,14.636c-0.502,0.844-1.21,1.648-1.21,1.648s1.384-0.136,2.323-0.136h7.871
		l-1.209,3.835H62.591v-3.295l8.617-14.23c0.637-1.081,1.442-2.123,1.442-2.123s-0.971,0.167-2.388,0.167h-7.201l1.042-3.9H78.101
		L78.101,6.384z"/>
	<path fill="#402C71" d="M93.38,14.796c1.377,1.615,1.982,3.501,1.982,6.294c0,2.96-0.675,4.981-2.156,6.661
		c-1.312,1.481-3.024,2.388-5.683,2.388c-4.679,0-7.742-3.501-7.742-8.913c0-5.419,3.096-9.024,7.742-9.024
		C89.975,12.202,91.893,13.045,93.38,14.796z M85.264,17.287c-0.302,0.908-0.47,2.117-0.47,3.835c0,1.982,0.206,3.462,0.573,4.337
		c0.406,0.947,1.417,1.416,2.291,1.416c1.95,0,2.793-1.751,2.793-5.818c0-2.324-0.302-3.835-0.908-4.615
		c-0.439-0.573-1.146-0.907-1.958-0.907C86.512,15.537,85.638,16.212,85.264,17.287z"/>
	<path fill="#402C71" d="M102.158,12.139c0.399,0.708,0.63,1.48,0.708,2.459c0.644-0.875,1.711-1.821,2.549-2.188
		c0.372-0.167,0.979-0.27,1.493-0.27c0.668,0,0.966,0.063,1.673,0.374l-1.236,3.965c-0.437-0.232-0.823-0.334-1.312-0.334
		c-1.018,0-1.932,0.469-2.768,1.447v12.184h-4.505V18.266c0-2.324-0.271-4.073-0.644-5.052L102.158,12.139z"/>
	<path fill="#402C71" d="M127.193,14.43c-0.979,0.908-1.93,1.273-3.166,1.273c-0.438,0-0.913-0.064-1.186-0.103
		c0.671,0.811,1.019,1.687,1.019,2.832c0,2.96-2.69,5.11-6.371,5.11c-0.193,0-0.335,0-0.67-0.032
		c-1.133,0.541-1.776,0.947-1.776,1.416c0,0.232,0.258,0.405,0.747,0.405l2.419,0.032c2.627,0.033,3.99,0.438,5.2,1.545
		c1.018,0.946,1.493,2.124,1.493,3.668c0,1.449-0.437,2.556-1.39,3.566c-1.507,1.615-4.094,2.22-6.797,2.22
		c-2.444,0-4.969-0.405-6.525-1.846c-0.94-0.875-1.402-1.886-1.402-3.064c0-0.947,0.231-1.416,0.385-1.751h4.185
		c-0.168,0.406-0.195,0.637-0.195,1.113c0,1.377,1.135,2.117,3.22,2.117c1.146,0,2.123-0.135,2.831-0.572
		c0.669-0.405,1.107-1.042,1.107-1.751c0-1.544-1.377-2.021-3.166-2.054l-1.905-0.031c-2.033-0.032-3.346-0.207-4.145-0.542
		c-0.812-0.302-1.312-1.075-1.312-2.253c0-1.113,0.335-2.156,3.166-2.896c-2.496-0.637-3.706-2.22-3.706-4.776
		c0-3.533,2.857-5.818,7.272-5.818c0.966,0,1.84,0.128,3.102,0.431c0.927,0.238,1.545,0.374,2.111,0.374
		c1.236,0,2.523-0.541,3.566-1.48L127.193,14.43z M113.795,18.091c0,1.75,1.081,2.459,2.664,2.459c1.777,0,2.756-0.875,2.756-2.459
		c0-1.615-1.006-2.555-2.729-2.555C114.773,15.537,113.795,16.476,113.795,18.091z"/>
	<path fill="#402C71" d="M133.013,4.769c0.206,1.28,0.257,3.295,0.257,5.586v19.411h-4.505V10.355c0-1.512-0.025-2.696-0.308-4.473
		L133.013,4.769z M143.207,12.543l-5.483,7.201l6.757,10.027h-5.316l-5.792-9.763l4.402-7.465H143.207z"/>
	<path fill="#402C71" d="M148.072,13.181c1.687-0.708,3.141-1.01,4.712-1.01c2.896,0,4.891,1.075,5.56,2.999
		c0.232,0.702,0.337,1.243,0.309,3.096l-0.103,5.786c0,0.103,0,0.2,0,0.302c0,1.847,0.297,2.555,1.609,3.533l-2.382,2.761
		c-1.056-0.438-1.995-1.216-2.434-2.092c-0.334,0.342-0.707,0.676-1.041,0.914c-0.851,0.605-2.061,0.939-3.463,0.939
		c-3.849,0-5.934-1.95-5.934-5.387c0-4.036,2.806-5.921,8.289-5.921c0.334,0,0.644,0,1.003,0.039v-0.707
		c0-1.918-0.358-2.561-2.007-2.561c-1.456,0-3.142,0.708-4.994,1.956l-1.905-3.23C146.193,14.023,146.862,13.683,148.072,13.181z
		 M153.929,22.23c-3.128,0-4.21,0.573-4.21,2.625c0,1.345,0.85,2.259,1.982,2.259c0.852,0,1.7-0.438,2.369-1.178l0.064-3.708h-0.206
		V22.23z"/>
	<path fill="#402C71" d="M165.437,13.181c1.686-0.708,3.128-1.01,4.712-1.01c2.896,0,4.878,1.075,5.547,2.999
		c0.231,0.702,0.335,1.243,0.309,3.096l-0.103,5.786c0,0.103,0,0.2,0,0.302c0,1.847,0.309,2.555,1.622,3.533l-2.396,2.761
		c-1.043-0.438-1.982-1.216-2.42-2.092c-0.334,0.342-0.708,0.676-1.056,0.914c-0.835,0.605-2.045,0.939-3.449,0.939
		c-3.849,0-5.92-1.95-5.92-5.387c0-4.036,2.78-5.921,8.264-5.921c0.335,0,0.643,0,1.004,0.039v-0.707
		c0-1.918-0.361-2.561-2.008-2.561c-1.442,0-3.128,0.708-4.981,1.956l-1.918-3.23C163.545,14.023,164.227,13.683,165.437,13.181z
		 M171.294,22.23c-3.14,0-4.21,0.573-4.21,2.625c0,1.345,0.837,2.259,1.995,2.259c0.825,0,1.674-0.438,2.343-1.178l0.078-3.708
		h-0.206V22.23z"/>
	<path fill="#402C71" d="M184.113,12.139c0.399,0.708,0.631,1.48,0.695,2.459c0.645-0.875,1.726-1.821,2.562-2.188
		c0.374-0.167,0.979-0.27,1.479-0.27c0.669,0,0.979,0.063,1.686,0.374l-1.247,3.965c-0.438-0.232-0.798-0.334-1.312-0.334
		c-1.004,0-1.918,0.469-2.755,1.447v12.184h-4.505V18.266c0-2.324-0.283-4.073-0.645-5.052L184.113,12.139z"/>
	<path fill="#402C71" d="M200.461,15.639h-2.896v8.643c0,2.188,0.398,2.761,1.944,2.761c0.411,0,0.824-0.103,1.621-0.334l0.567,2.69
		c-1.312,0.541-2.484,0.772-3.655,0.772c-2.292,0-4.12-1.01-4.647-2.522c-0.271-0.74-0.296-1.075-0.296-2.659v-9.351h-1.726v-3.096
		h1.726c0-1.686,0-2.792,0.154-4.073l4.582-1.146c-0.168,1.583-0.271,3.469-0.271,5.219h4.042L200.461,15.639z"/>
	<path fill="#402C71" d="M63.852,35.469h2.492l5.966,11.463c0.939,1.777,1.673,3.771,1.673,3.771s-0.212-2.883-0.238-5.472
		l-0.078-9.763h2.125v17.949h-2.253l-5.76-10.985c-1.152-2.176-2.04-4.318-2.04-4.318s0.211,2.56,0.238,4.891l0.103,10.413h-2.228
		V35.469L63.852,35.469z"/>
	<path fill="#402C71" d="M88.868,50.779l0.786,1.307c-1.151,1.043-2.716,1.622-4.396,1.622c-3.611,0-5.78-2.62-5.78-6.932
		c0-2.2,0.47-3.616,1.571-4.924c1.042-1.229,2.324-1.809,3.893-1.809c1.417,0,2.646,0.504,3.534,1.418
		c1.126,1.15,1.493,2.379,1.493,5.495v0.284h-8.135v0.315c0,1.229,0.155,2.175,0.599,2.85c0.733,1.126,1.937,1.603,3.244,1.603
		C86.937,52.009,87.955,51.615,88.868,50.779z M81.833,45.701h5.966c-0.026-1.416-0.212-2.277-0.604-2.902
		c-0.444-0.708-1.358-1.152-2.356-1.152C82.979,41.646,81.937,43.005,81.833,45.701z"/>
	<path fill="#402C71" d="M103.472,34.658v14.551c0,2.246,0.103,3.45,0.398,4.209h-2.098c0,0-0.27-0.649-0.296-1.332
		c-0.927,1.075-1.93,1.52-3.45,1.52c-3.372,0-5.309-2.434-5.309-6.597c0-2.774,0.914-4.814,2.697-6.044
		c0.836-0.573,1.571-0.812,2.51-0.812c1.467,0,2.754,0.605,3.527,1.648c0,0-0.026-1.075-0.026-2.015v-5.471L103.472,34.658z
		 M101.399,43.191c-0.644-0.92-1.622-1.364-3.167-1.364c-1.018,0-1.88,0.47-2.427,1.364c-0.63,0.99-0.835,1.93-0.835,3.765
		c0,1.519,0.103,2.645,0.521,3.406c0.605,1.068,1.41,1.512,2.613,1.512c1.081,0,1.673-0.231,2.523-0.837
		c0.541-0.393,0.772-0.94,0.772-0.94L101.399,43.191L101.399,43.191z"/>
	<path fill="#402C71" d="M116.395,50.779l0.785,1.307c-1.145,1.043-2.716,1.622-4.401,1.622c-3.605,0-5.768-2.62-5.768-6.932
		c0-2.2,0.464-3.616,1.571-4.924c1.042-1.229,2.316-1.809,3.887-1.809c1.416,0,2.652,0.504,3.528,1.418
		c1.132,1.15,1.493,2.379,1.493,5.495v0.284h-8.136v0.315c0,1.229,0.154,2.175,0.605,2.85c0.734,1.126,1.943,1.603,3.244,1.603
		C114.464,52.009,115.48,51.615,116.395,50.779z M109.354,45.701h5.974c-0.026-1.416-0.206-2.277-0.606-2.902
		c-0.449-0.708-1.351-1.152-2.354-1.152C110.513,41.646,109.456,43.005,109.354,45.701z"/>
	<path fill="#402C71" d="M120.732,40.598l2.047-0.546c0,0,0.502,1.017,0.424,2.117c0.94-1.333,2.317-2.176,3.656-2.176
		c0.334,0,0.707,0.136,0.707,0.136l-0.837,2.219c-0.129-0.051-0.36-0.102-0.566-0.102c-0.798,0-1.569,0.342-2.188,0.947
		c-0.591,0.599-0.746,0.99-0.746,2.065v8.161h-2.046V43.372C121.183,41.46,120.732,40.598,120.732,40.598z"/>
	<path fill="#402C71" d="M131.983,50.807c0,1.015,0.166,1.306,0.745,1.306c0.077,0,0.259-0.053,0.259-0.053l0.412,1.333
		c-0.515,0.238-0.746,0.291-1.301,0.291c-0.63,0-1.146-0.188-1.544-0.554c-0.426-0.367-0.632-0.913-0.632-1.854V37.458
		c0-1.7-0.308-2.672-0.308-2.672l2.033-0.392c0,0,0.348,1.1,0.348,3.088v13.324H131.983z"/>
	<path fill="#402C71" d="M135.974,41.802c1.724-1.151,3.578-1.752,5.457-1.752c1.816,0,3.063,0.708,3.617,2.041
		c0.297,0.707,0.321,1.699,0.297,2.877l-0.116,4.293c-0.052,2.117,0.09,2.671,1.043,3.192l-1.043,1.467
		c-0.889-0.289-1.532-0.996-1.777-1.911c-1.248,1.255-2.278,1.75-3.771,1.75c-3.218,0-4.182-1.962-4.182-3.712
		c0-2.962,2.534-4.686,6.911-4.686c0.542,0,0.914,0.025,0.914,0.025v-0.914c0-1.151-0.051-1.622-0.424-2.039
		c-0.412-0.47-0.94-0.708-1.752-0.708c-1.468,0-3.32,0.785-4.158,1.545L135.974,41.802z M143.271,46.803
		c-0.348-0.026-0.657-0.053-1.017-0.053c-3.295,0-4.48,1.119-4.48,3.109c0,1.545,0.76,2.381,2.254,2.381
		c1.324,0,2.561-0.811,3.166-2.04L143.271,46.803z"/>
	<path fill="#402C71" d="M149.205,40.623l1.982-0.545c0,0,0.489,0.964,0.489,2.038c1.352-1.363,2.703-2.014,4.094-2.014
		c1.416,0,2.677,0.759,3.193,1.911c0.206,0.47,0.321,0.991,0.321,1.513v9.892h-2.072v-8.816c0-1.384-0.104-1.725-0.465-2.168
		c-0.283-0.343-0.849-0.555-1.441-0.555c-1.055,0-2.677,0.838-3.604,1.836v9.704h-1.996V43.372
		C149.707,41.512,149.205,40.623,149.205,40.623z"/>
	<path fill="#402C71" d="M173.378,34.658v14.551c0,2.246,0.116,3.45,0.399,4.209h-2.099c0,0-0.257-0.649-0.283-1.332
		c-0.939,1.075-1.93,1.52-3.448,1.52c-3.373,0-5.316-2.434-5.316-6.597c0-2.774,0.914-4.814,2.689-6.044
		c0.85-0.573,1.571-0.812,2.523-0.812c1.467,0,2.741,0.605,3.527,1.648c0,0-0.026-1.075-0.026-2.015v-5.471L173.378,34.658z
		 M171.319,43.191c-0.657-0.92-1.623-1.364-3.165-1.364c-1.019,0-1.881,0.47-2.435,1.364c-0.63,0.99-0.837,1.93-0.837,3.765
		c0,1.519,0.104,2.645,0.516,3.406c0.617,1.068,1.415,1.512,2.625,1.512c1.081,0,1.673-0.231,2.51-0.837
		c0.555-0.393,0.787-0.94,0.787-0.94L171.319,43.191L171.319,43.191z"/>
</g>
<circle cx="29.45" cy="3.35" r="1.35" fill="#F29719"/><circle cx="26.4" cy="6.4" r="1.35" fill="#F29719"/><circle cx="35.55" cy="6.4" r="1.35" fill="#F29719"/><circle cx="38.6" cy="6.4" r="1.35" fill="#F29719"/><circle cx="41.65" cy="6.4" r="1.35" fill="#F29719"/><circle cx="44.7" cy="6.4" r="1.35" fill="#F29719"/><circle cx="23.35" cy="9.45" r="1.35" fill="#F29719"/><circle cx="32.5" cy="9.45" r="1.35" fill="#F29719"/><circle cx="35.55" cy="9.45" r="1.35" fill="#F29719"/><circle cx="38.6" cy="9.45" r="1.35" fill="#DA1C47"/><circle cx="41.65" cy="9.45" r="1.35" fill="#DA1C47"/><circle cx="44.7" cy="9.45" r="1.35" fill="#F29719"/><circle cx="47.75" cy="9.45" r="1.35" fill="#F29719"/><circle cx="29.45" cy="12.5" r="1.35" fill="#F29719"/><circle cx="32.5" cy="12.5" r="1.35" fill="#F29719"/><circle cx="35.55" cy="12.5" r="1.35" fill="#F29719"/><circle cx="38.6" cy="12.5" r="1.35" fill="#DA1C47"/><circle cx="41.65" cy="12.5" r="1.35" fill="#DA1C47"/><circle cx="44.7" cy="12.5" r="1.35" fill="#F29719"/><circle cx="47.75" cy="12.5" r="1.35" fill="#F29719"/><circle cx="23.35" cy="15.55" r="1.35" fill="#F29719"/><circle cx="29.45" cy="15.55" r="1.35" fill="#F29719"/><circle cx="32.5" cy="15.55" r="1.35" fill="#DA1C47"/><circle cx="35.55" cy="15.55" r="1.35" fill="#DA1C47"/><circle cx="38.6" cy="15.55" r="1.35" fill="#DA1C47"/><circle cx="41.65" cy="15.55" r="1.35" fill="#DA1C47"/><circle cx="44.7" cy="15.55" r="1.35" fill="#DA1C47"/><circle cx="47.75" cy="15.55" r="1.35" fill="#DA1C47"/><circle cx="20.3" cy="18.6" r="1.35" fill="#F29719"/><circle cx="23.35" cy="18.6" r="1.35" fill="#F29719"/><circle cx="32.5" cy="18.6" r="1.35" fill="#DA1C47"/><circle cx="35.55" cy="18.6" r="1.35" fill="#DA1C47"/><circle cx="38.6" cy="18.6" r="1.35" fill="#DA1C47"/><circle cx="41.65" cy="18.6" r="1.35" fill="#DA1C47"/><circle cx="44.7" cy="18.6" r="1.35" fill="#DA1C47"/><circle cx="47.75" cy="18.6" r="1.35" fill="#DA1C47"/><circle cx="20.3" cy="21.65" r="1.35" fill="#F29719"/><circle cx="23.35" cy="21.65" r="1.35" fill="#F29719"/><circle cx="32.5" cy="21.65" r="1.35" fill="#F29719"/><circle cx="35.55" cy="21.65" r="1.35" fill="#F29719"/><circle cx="38.6" cy="21.65" r="1.35" fill="#DA1C47"/><circle cx="41.65" cy="21.65" r="1.35" fill="#DA1C47"/><circle cx="20.3" cy="24.7" r="1.35" fill="#F29719"/><circle cx="23.35" cy="24.7" r="1.35" fill="#F29719"/><circle cx="32.5" cy="24.7" r="1.35" fill="#F29719"/><circle cx="35.55" cy="24.7" r="1.35" fill="#F29719"/><circle cx="38.6" cy="24.7" r="1.35" fill="#DA1C47"/><circle cx="41.65" cy="24.7" r="1.35" fill="#DA1C47"/><circle cx="44.7" cy="24.7" r="1.35" fill="#F29719"/><circle cx="47.75" cy="24.7" r="1.35" fill="#F29719"/><circle cx="20.3" cy="27.75" r="1.35" fill="#F29719"/><circle cx="23.35" cy="27.75" r="1.35" fill="#F29719"/><circle cx="26.4" cy="27.75" r="1.35" fill="#F29719"/><circle cx="29.45" cy="27.75" r="1.35" fill="#F29719"/><circle cx="32.5" cy="27.75" r="1.35" fill="#F29719"/><circle cx="35.55" cy="27.75" r="1.35" fill="#F29719"/><circle cx="38.6" cy="27.75" r="1.35" fill="#F29719"/><circle cx="41.65" cy="27.75" r="1.35" fill="#F29719"/><circle cx="44.7" cy="27.75" r="1.35" fill="#F29719"/><circle cx="47.75" cy="27.75" r="1.35" fill="#F29719"/><circle cx="17.25" cy="30.8" r="1.35" fill="#F29719"/><circle cx="20.3" cy="30.8" r="1.35" fill="#F29719"/><circle cx="23.35" cy="30.8" r="1.35" fill="#F29719"/><circle cx="26.4" cy="30.8" r="1.35" fill="#F29719"/><circle cx="29.45" cy="30.8" r="1.35" fill="#F29719"/><circle cx="32.5" cy="30.8" r="1.35" fill="#F29719"/><circle cx="35.55" cy="30.8" r="1.35" fill="#F29719"/><circle cx="38.6" cy="30.8" r="1.35" fill="#F29719"/><circle cx="41.65" cy="30.8" r="1.35" fill="#F29719"/><circle cx="44.7" cy="30.8" r="1.35" fill="#F29719"/><circle cx="47.75" cy="30.8" r="1.35" fill="#F29719"/><circle cx="17.25" cy="33.85" r="1.35" fill="#F29719"/><circle cx="20.3" cy="33.85" r="1.35" fill="#F29719"/><circle cx="23.35" cy="33.85" r="1.35" fill="#F29719"/><circle cx="26.4" cy="33.85" r="1.35" fill="#F29719"/><circle cx="29.45" cy="33.85" r="1.35" fill="#F29719"/><circle cx="32.5" cy="33.85" r="1.35" fill="#F29719"/><circle cx="35.55" cy="33.85" r="1.35" fill="#F29719"/><circle cx="38.6" cy="33.85" r="1.35" fill="#F29719"/><circle cx="41.65" cy="33.85" r="1.35" fill="#F29719"/><circle cx="44.7" cy="33.85" r="1.35" fill="#F29719"/><circle cx="14.2" cy="36.9" r="1.35" fill="#F29719"/><circle cx="17.25" cy="36.9" r="1.35" fill="#F29719"/><circle cx="20.3" cy="36.9" r="1.35" fill="#F29719"/><circle cx="23.35" cy="36.9" r="1.35" fill="#F29719"/><circle cx="26.4" cy="36.9" r="1.35" fill="#F29719"/><circle cx="29.45" cy="36.9" r="1.35" fill="#F29719"/><circle cx="32.5" cy="36.9" r="1.35" fill="#F29719"/><circle cx="35.55" cy="36.9" r="1.35" fill="#F29719"/><circle cx="14.2" cy="39.95" r="1.35" fill="#F29719"/><circle cx="17.25" cy="39.95" r="1.35" fill="#F29719"/><circle cx="20.3" cy="39.95" r="1.35" fill="#F29719"/><circle cx="23.35" cy="39.95" r="1.35" fill="#F29719"/><circle cx="26.4" cy="39.95" r="1.35" fill="#F29719"/><circle cx="29.45" cy="39.95" r="1.35" fill="#F29719"/><circle cx="32.5" cy="39.95" r="1.35" fill="#F29719"/><circle cx="35.55" cy="39.95" r="1.35" fill="#F29719"/><circle cx="11.15" cy="43" r="1.35" fill="#F29719"/><circle cx="14.2" cy="43" r="1.35" fill="#F29719"/><circle cx="17.25" cy="43" r="1.35" fill="#F29719"/><circle cx="20.3" cy="43" r="1.35" fill="#F29719"/><circle cx="23.35" cy="43" r="1.35" fill="#F29719"/><circle cx="26.4" cy="43" r="1.35" fill="#F29719"/><circle cx="29.45" cy="43" r="1.35" fill="#F29719"/><circle cx="32.5" cy="43" r="1.35" fill="#F29719"/><circle cx="35.55" cy="43" r="1.35" fill="#F29719"/><circle cx="38.6" cy="43" r="1.35" fill="#F29719"/><circle cx="8.1" cy="46.05" r="1.35" fill="#F29719"/><circle cx="11.15" cy="46.05" r="1.35" fill="#F29719"/><circle cx="14.2" cy="46.05" r="1.35" fill="#F29719"/><circle cx="17.25" cy="46.05" r="1.35" fill="#F29719"/><circle cx="20.3" cy="46.05" r="1.35" fill="#F29719"/><circle cx="23.35" cy="46.05" r="1.35" fill="#F29719"/><circle cx="26.4" cy="46.05" r="1.35" fill="#F29719"/><circle cx="29.45" cy="46.05" r="1.35" fill="#F29719"/><circle cx="32.5" cy="46.05" r="1.35" fill="#F29719"/><circle cx="35.55" cy="46.05" r="1.35" fill="#F29719"/><circle cx="38.6" cy="46.05" r="1.35" fill="#F29719"/><circle cx="5.05" cy="49.1" r="1.35" fill="#F29719"/><circle cx="8.1" cy="49.1" r="1.35" fill="#F29719"/><circle cx="11.15" cy="49.1" r="1.35" fill="#F29719"/><circle cx="14.2" cy="49.1" r="1.35" fill="#F29719"/><circle cx="35.55" cy="49.1" r="1.35" fill="#F29719"/><circle cx="38.6" cy="49.1" r="1.35" fill="#F29719"/><circle cx="38.6" cy="52.15" r="1.35" fill="#F29719"/><circle cx="35.55" cy="55.2" r="1.35" fill="#F29719"/><circle cx="38.6" cy="55.2" r="1.35" fill="#F29719"/><circle cx="35.55" cy="58.25" r="1.35" fill="#F29719"/><circle cx="38.6" cy="58.25" r="1.35" fill="#F29719"/>
</svg>