<?xml version="1.0" encoding="UTF-8" standalone="no"?>
<svg width="36px" height="41px" viewBox="0 0 36 41" version="1.1" xmlns="http://www.w3.org/2000/svg" xmlns:xlink="http://www.w3.org/1999/xlink">
    <!-- Generator: Sketch 3.6 (26304) - http://www.bohemiancoding.com/sketch -->
    <title>Page 1</title>
    <desc>Created with Sketch.</desc>
    <defs></defs>
    <g id="Page-1" stroke="none" stroke-width="1" fill="none" fill-rule="evenodd">
        <g id="Praktijk" transform="translate(-1262.000000, -805.000000)" fill="#FFFFFF">
            <g id="Beoordelingen-Copy" transform="translate(221.000000, 157.000000)">
                <g id="Group-9-Copy-10" transform="translate(859.375000, 611.000000)">
                    <path d="M198.497398,52.1302044 C198.497398,50.7934067 198.983509,49.6540711 199.955731,48.7122444 C200.927953,47.7704022 202.082471,47.2994733 203.419269,47.2994733 C204.756082,47.2994733 205.895402,47.7704022 206.837244,48.7122444 C207.779087,49.6540711 208.25,50.7934067 208.25,52.1302044 C208.25,53.4670178 207.779087,54.6063378 206.837244,55.54818 C205.895402,56.4900222 204.756082,56.9609356 203.419269,56.9609356 C202.082471,56.9609356 200.927953,56.4900222 199.955731,55.54818 C198.983509,54.6063378 198.497398,53.4670178 198.497398,52.1302044 L198.497398,52.1302044 Z M191.023437,39.7343711 C187.620659,43.1371489 185.91927,47.2690933 185.91927,52.1302044 C185.91927,56.9913156 187.620659,61.12326 191.023437,64.5260393 L188.289063,67.2604151 C184.096354,63.067706 182,58.0242978 182,52.1302044 C182,46.2361111 184.096354,41.1927044 188.289063,37 L191.023437,39.7343711 Z M209.252602,73.5494764 C210.285584,73.5494764 211.181864,73.1545116 211.941411,72.3645818 C212.700958,71.5746504 213.080731,70.6631929 213.080731,69.630206 L217,69.630206 C217,71.7569429 216.240453,73.5798596 214.72136,75.098956 C213.202251,76.6180537 211.379342,77.3776022 209.252602,77.3776022 C208.037324,77.3776022 206.973962,77.1649285 206.0625,76.7395815 C203.571184,75.4635393 201.77864,73.1545116 200.684898,69.8124984 C200.259547,68.4756929 199.165804,67.1388873 197.403646,65.8020818 C194.912326,63.9791651 193.059028,61.9435744 191.84375,59.6953067 C190.446181,57.2039911 189.747396,54.6822956 189.747396,52.1302044 C189.747396,48.3020756 191.06901,45.0815933 193.71224,42.4687422 C196.355469,39.8559067 199.59114,38.5494733 203.419269,38.5494733 C207.247398,38.5494733 210.46788,39.8559067 213.080731,42.4687422 C215.693582,45.0815933 217,48.3020756 217,52.1302044 L213.080731,52.1302044 C213.080731,49.3958333 212.154087,47.0867978 210.300782,45.2031289 C208.447478,43.3194444 206.15364,42.3776022 203.419269,42.3776022 C200.684898,42.3776022 198.375862,43.3194444 196.492187,45.2031289 C194.608507,47.0867978 193.666667,49.3958333 193.666667,52.1302044 C193.666667,54.0746489 194.183159,55.9887133 195.216146,57.8723978 C196.066841,59.5130111 197.585936,61.15364 199.773436,62.7942689 C202.203991,64.6171856 203.75348,66.56163 204.421871,68.6276022 C205.211813,70.93663 206.305556,72.455728 207.703129,73.1848947 C208.18924,73.4279502 208.705731,73.5494764 209.252602,73.5494764 L209.252602,73.5494764 Z" id="Page-1"></path>
                </g>
            </g>
        </g>
    </g>
</svg>