<?xml version="1.0" encoding="UTF-8" standalone="no"?>
<svg width="35px" height="51px" viewBox="0 0 35 51" version="1.1" xmlns="http://www.w3.org/2000/svg" xmlns:xlink="http://www.w3.org/1999/xlink">
    <!-- Generator: Sketch 3.6 (26304) - http://www.bohemiancoding.com/sketch -->
    <title>business-2</title>
    <desc>Created with Sketch.</desc>
    <defs></defs>
    <g id="Page-1" stroke="none" stroke-width="1" fill="none" fill-rule="evenodd">
        <g id="Praktijk" transform="translate(-843.000000, -800.000000)" fill="#FFFFFF">
            <g id="Beoordelingen-Copy" transform="translate(221.000000, 157.000000)">
                <g id="Group-9-Copy" transform="translate(440.000000, 611.000000)">
                    <g id="business-2" transform="translate(182.000000, 32.000000)">
                        <g id="Group">
                            <circle id="Oval" cx="8.06166667" cy="4.82833333" r="4.82833333"></circle>
                            <path d="M34.8708333,29.855 C34.6575,24.2658333 33.9458333,18.7133333 32.8741667,13.2275 C32.0291667,8.90666667 26.6308333,9.4475 24.9758333,12.5608333 C24.895,12.6641667 24.8191667,12.7725 24.75,12.8941667 C22.825,16.2916667 20.4683333,19.3341667 17.5516667,21.8891667 C14.6358333,19.335 12.2791667,16.2925 10.3525,12.895 C10.2741667,12.7558333 10.1875,12.6341667 10.0958333,12.5208333 C8.41083333,9.44416667 3.07333333,8.91416667 2.23416667,13.2058333 C1.165,18.6808333 0.445,24.2158333 0.230833333,29.7908333 C0.1925,30.8033333 0.45,31.6316667 0.894166667,32.2775 C0.849166667,32.4691667 0.821666667,32.6766667 0.821666667,32.9008333 L0.821666667,47.6408333 C0.821666667,50.92 5.90416667,50.92 5.90416667,47.6408333 L5.90416667,33.7341667 C7.45416667,33.2333333 8.7375,31.9433333 8.8175,29.855 C8.93333333,26.8233333 9.20416667,23.8216667 9.61833333,20.8341667 C11.265,22.8766667 13.1075,24.7433333 15.1583333,26.4516667 C15.5666667,27.4691667 16.4916667,28.2175 17.5508333,28.0275 C18.61,28.2183333 19.5341667,27.4691667 19.9433333,26.4516667 C21.9941667,24.7433333 23.8366667,22.8766667 25.4825,20.8333333 C25.8958333,23.8008333 26.1675,26.7808333 26.285,29.7916667 C26.365,31.885 27.6458333,33.1916667 29.1966667,33.7108333 L29.1966667,47.6416667 C29.1966667,50.9208333 34.2791667,50.9208333 34.2791667,47.6416667 L34.2791667,32.9016667 C34.2791667,32.6891667 34.2575,32.4933333 34.2175,32.3075 C34.6558333,31.6708333 34.91,30.8566667 34.8708333,29.855 L34.8708333,29.855 Z" id="Shape"></path>
                            <ellipse id="Oval" cx="27.0416667" cy="4.82833333" rx="4.82833333" ry="4.82833333"></ellipse>
                        </g>
                    </g>
                </g>
            </g>
        </g>
    </g>
</svg>